<svg width="409" height="417" viewBox="0 0 409 417" fill="none" xmlns="http://www.w3.org/2000/svg">
<path d="M116 93.4806C132.3 93.3869 148.599 93.3166 164.899 93.2736C197.172 93.186 246.841 87.5561 271.445 110.145C279.48 119.686 281.847 128.302 281 140.299C278.247 152.984 271 158.145 262 166.645C256 171.645 244.5 176.645 232 181.406C233.377 181.989 233.377 181.989 234.781 182.584C245 189.645 260 219.645 260 218.374C260.909 217.806 261.818 217.238 262.754 216.653C288.975 200.463 317.145 192.67 348.25 198.579C350.511 199.14 352.762 199.744 355 200.39C355.627 200.556 356.254 200.722 356.9 200.893C373.73 205.356 389.498 213.347 403 224.369C401.622 231.297 399.613 237.746 397.125 244.352C396.786 245.304 396.447 246.256 396.098 247.236C395.759 248.139 395.42 249.042 395.07 249.972C394.769 250.789 394.467 251.606 394.157 252.447C393 254.344 393 254.344 390.871 255.116C389.945 255.229 389.945 255.229 389 255.343C388.29 254.327 388.29 254.327 387.566 253.29C382.776 246.554 377.672 240.369 372 234.361C371.314 233.6 370.628 232.838 369.922 232.054C363.751 225.466 356.718 220.935 349 216.376C348.279 215.943 347.559 215.511 346.816 215.065C340.668 211.683 333.746 210.151 327 208.383C325.994 208.089 325.994 208.089 324.969 207.79C309.35 204.569 292.167 210.154 279 218.374C275.439 221.169 272.178 224.148 269 227.367C268.395 227.805 267.791 228.242 267.168 228.694C252.43 246.035 282.089 285.944 303 283.319C291 305.274 257.5 291.774 248 273.145C247.069 303.336 255.621 338.719 277.5 360.145C295.265 377.543 318.46 384.545 343.264 384.545C363.086 384.26 381.736 377.318 396 363.251C398.828 360.029 401.475 356.722 404 353.259C405.65 353.589 407.3 353.919 409 354.259C373 419.5 257.797 409.008 229.535 343.217C219.153 317.471 217.9 286.481 228.638 260.66C230.416 256.558 232.184 252.541 234.715 248.837C241.301 236.095 222.76 199.979 216.25 193.77C206 187.645 176.5 200.893 166.358 218.85C165.421 226.065 165.817 233.296 166.125 240.543C166.168 242.716 166.206 244.889 166.238 247.063C166.083 269.019 166.083 269.019 173 289.314C173 289.973 173 290.633 173 291.312C176.96 292.301 180.92 293.291 185 294.31C185 295.629 185 296.947 185 298.306C162.23 298.306 139.46 298.306 116 298.306C116 296.987 116 295.669 116 294.31C116.592 294.223 117.183 294.137 117.793 294.048C123.304 293.069 131 289.645 131 287.145C135.247 276.786 134.149 266.253 134.145 255.239C134.148 253.821 134.152 252.404 134.155 250.987C134.164 247.155 134.167 243.323 134.167 239.492C134.168 237.091 134.17 234.691 134.173 232.291C134.182 223.9 134.186 215.508 134.185 207.117C134.185 199.324 134.195 191.532 134.211 183.739C134.224 177.025 134.229 170.311 134.229 163.598C134.229 159.598 134.231 155.599 134.242 151.6C134.252 147.833 134.252 144.066 134.244 140.299C134.243 138.28 134.251 136.26 134.26 134.24C134.357 116.11 134.357 116.11 126.187 100.537C123.187 99.0809 120.298 98.7932 117 98.4764C116.67 96.8278 116.34 95.1792 116 93.4806ZM166 100.475C166 134.765 166 169.056 166 204.386C180.624 197.08 193.783 185.728 208 177.409C234.02 162.294 234.02 162.294 251.375 138.442C253.281 129.3 252.02 121.125 246.937 113.276C228.443 93.4774 190.051 100.475 166 100.475Z" fill="#FB0500"/>
<path d="M115 93C115 93 150 93.0002 166.171 93C167.341 156.997 167.671 230.997 173 290.5C176.96 291.49 180.92 292.48 185 293.5C185 294.82 185 297.64 185 299C162.23 299 139.46 299 116 299C116 297.68 116 294.86 116 293.5C121.585 292.685 125.5 291.5 130 288C133.171 247.997 138.671 148.997 126.187 101.062C123.187 99.6051 120.298 99.3171 117 99C116.67 97.35 115.34 94.7 115 93Z" fill="#08B100"/>
<path d="M236 243.5C240.07 244.857 240.236 248.483 241.267 252.503C244.229 263.814 248.363 272.774 248.767 284.753C250.173 314.063 258.657 341.117 280.829 361.503C301.056 378.636 324.652 384.098 350.829 382.503C360 380.5 387.506 371.803 399.517 356.941C400.633 355.471 401.742 353.995 402.829 352.503C404.479 352.833 407.3 353.16 409 353.5C404 372.997 376 390.584 364.5 395.5C338.853 406.464 308.516 405.222 282.759 395.16C258.51 385.163 238.747 366.643 228.364 342.453C218.002 316.732 216.722 285.734 227.419 259.923C229.874 254.241 232.874 248.84 236 243.5Z" fill="#00BFFE"/>
<path d="M45.8493 167.275L45.83 167.322L45.8125 167.37C44.3075 171.492 43.2267 175.66 42.1766 179.76C42.1761 179.762 42.1755 179.764 42.1749 179.767L41.5474 182.162L41.5456 182.169C39.2955 190.862 38.0775 199.337 37.3724 208.198C37.372 208.203 37.3717 208.207 37.3713 208.212L37.1566 210.591L37.1557 210.6L37.1549 210.61L36.9884 212.631C36.6471 214.309 36.1108 215.491 35.1318 217.01C31.4895 219.302 26.6057 221.3 21.4954 222.571C16.3671 223.845 11.2149 224.337 7.03714 223.779C6.46113 223.424 6.41025 223.371 6.36868 223.325C6.35588 223.311 6.30271 223.251 6.17371 223.03C6.07581 222.862 5.96408 222.654 5.81063 222.363C5.54742 219.878 5.44042 217.588 5.466 215.077L5.46606 215.067L5.48093 212.615C5.48103 212.61 5.48113 212.605 5.48123 212.599C5.93065 188.794 10.6945 163.943 20.5951 142.369L20.5968 142.365C21.4543 140.489 22.2707 138.605 23.0735 136.733C26.1068 129.758 29.5653 123.255 33.5991 116.796L33.6031 116.789C41.3131 104.36 50.0873 90.9016 60.9362 81.5172L61.0735 81.3985L61.1923 81.2611C61.9543 80.3792 62.7194 79.4785 63.4698 78.554C65.7812 79.0453 67.3691 80.024 68.5866 81.2555C70.0939 82.78 71.1719 84.8289 72.2068 87.3322C72.5378 88.1329 72.8787 89.0226 73.2343 89.9507C73.9101 91.7148 74.639 93.6173 75.454 95.3098C76.5933 97.6757 78.0657 100.037 80.2523 101.963C79.9913 108.58 75.6839 115.272 70.1108 122.421C68.9951 123.852 67.8137 125.322 66.6247 126.8C64.8132 129.053 62.9842 131.327 61.3438 133.522C58.5876 137.209 56.0911 141.015 54.5919 144.884C46.9753 164.542 46.9724 164.549 45.8565 167.258L45.8493 167.275Z" fill="#FA0000" stroke="black" stroke-width="5"/>
<path d="M213.392 38.4261C175.624 40.9219 135.651 49.0849 106.287 75.5405C104.6 76.5386 102.201 76.7864 99.1477 76.1521C96.0273 75.5039 92.5457 73.9936 89.1635 71.9574C85.7938 69.9287 82.6295 67.4423 80.1416 64.9434C78.2027 62.9959 76.7882 61.1546 75.9611 59.6116C90.5819 44.6597 116.132 27.9215 143.643 17.0616C171.596 6.02734 200.891 1.32857 222.573 9.98291C224.611 14.785 223.029 19.1247 220.275 24.0173C219.759 24.9344 219.167 25.9255 218.558 26.9441C217.573 28.5911 216.546 30.3099 215.729 31.9039C214.691 33.9274 213.782 36.1113 213.392 38.4261Z" fill="#FAC801" stroke="black" stroke-width="5"/>
<path d="M362.864 75.5996C372.318 85.0963 379.104 94.8564 381.662 104.4C379.147 105.156 376.707 106.121 374.342 107.099C373.74 107.349 373.145 107.597 372.555 107.844C370.761 108.596 369.01 109.329 367.234 109.991C362.805 111.643 358.506 112.74 353.964 112.329C337.293 90.5096 322.049 76.5912 305.323 66.6537C288.695 56.7739 270.711 50.8967 248.673 45.0303C247.089 40.7323 246.512 35.622 246.387 30.2326C246.297 26.4078 246.433 22.5949 246.564 18.8993C246.619 17.3675 246.672 15.8559 246.709 14.3719C250.088 12.5657 253.02 13.0766 257.762 14.0713C270.722 17.7015 299.685 30.338 326.557 47.401C340 55.937 352.844 65.5331 362.864 75.5996Z" fill="#00BCFA" stroke="black" stroke-width="4"/>
<path d="M166 93C196.404 92.707 249.665 85.325 273.222 107.488C306.651 148.165 245.845 190.947 207.297 179C224.432 159.921 265.037 147.526 246 114C227.995 96.5097 190.72 100.943 166.297 100.5C166.297 98.1786 166 95.3915 166 93Z" fill="#FECB02"/>
<path d="M403.667 224.896C402.021 233.178 399.553 254.578 388.667 255.896C354.5 214.5 304.758 191.469 264.667 232.896C262.323 228.278 258.09 223.317 260 218C295.829 180.268 367.5 194 403.667 224.896Z" fill="#08B104"/>
<path d="M40.8292 239.503C40.592 240.649 40.3548 241.795 40.1104 242.976C38.2535 251.278 38.2535 251.278 40.4073 259.05C42.5195 260.848 42.5195 260.848 44.8136 262.179C47.1284 263.7 47.8126 264.967 48.8292 267.503C43.4999 269.204 38.3981 270.024 32.8292 270.503C32.6023 271.308 32.3754 272.112 32.1417 272.941C30.4929 277.416 28.2237 281.391 25.8292 285.503C24.3442 285.008 24.3442 285.008 22.8292 284.503C22.0573 282.541 21.3356 280.558 20.6417 278.566C18.733 274.283 18.733 274.283 14.9879 271.743C10.3139 270.683 5.60731 270.526 0.829193 270.503C1.3285 266.389 3.38524 264.924 6.45419 262.316C9.77563 259.256 9.77563 259.256 11.2354 255.164C10.9515 252.856 10.4582 250.74 9.82919 248.503C9.62263 247.152 9.43323 245.798 9.26669 244.441C9.12232 243.472 8.97794 242.502 8.82919 241.503C11.8292 240.503 11.8292 240.503 14.3526 241.535C16.2496 242.512 18.1454 243.491 20.0401 244.472C23.2643 245.664 24.6044 245.585 27.8292 244.503C30.1788 243.295 32.3924 241.94 34.6456 240.562C36.8292 239.503 36.8292 239.503 40.8292 239.503Z" fill="#FCCA0D"/>
<path d="M61.8293 292.503C62.4893 292.833 63.1493 293.163 63.8293 293.503C64.0415 295.208 64.2471 296.913 64.412 298.622C64.8151 302.252 65.4721 305.063 66.8293 308.503C70.8627 311.546 74.9954 313.117 79.8293 314.503C79.8293 315.493 79.8293 316.483 79.8293 317.503C78.9256 317.823 78.022 318.143 77.091 318.472C70.3971 321.111 70.3971 321.111 65.9191 326.405C64.5697 331.023 64.1224 335.716 63.8293 340.503C59.9348 339.97 58.5997 338.336 56.1418 335.378C53.3632 332.386 53.3632 332.386 49.6261 331.164C47.3 331.452 45.1048 331.944 42.8293 332.503C41.1444 332.713 39.4567 332.902 37.7668 333.066C36.4674 333.21 35.168 333.355 33.8293 333.503C34.8198 330.829 35.8565 328.46 37.3644 326.031C39.0824 323.118 40.2027 320.841 40.8293 317.503C39.4412 313.92 37.6828 311.147 35.4386 308.035C34.642 306.782 34.642 306.782 33.8293 305.503C34.1593 304.513 34.4893 303.523 34.8293 302.503C35.9752 302.668 37.1212 302.833 38.3019 303.003C46.6703 304.299 46.6703 304.299 54.4113 301.894C56.127 299.846 57.4735 297.8 58.8293 295.503C59.7992 294.474 60.7906 293.463 61.8293 292.503Z" fill="#FCCB0A"/>
<path d="M100.829 335.503C101.489 335.503 102.149 335.503 102.829 335.503C103.837 337.27 104.835 339.042 105.829 340.816C106.386 341.802 106.943 342.788 107.517 343.804C108.829 346.503 108.829 346.503 108.829 349.503C109.398 349.492 109.966 349.48 110.552 349.468C115.436 349.411 120.014 349.684 124.829 350.503C124.829 353.503 124.829 353.503 122.86 355.484C121.607 356.576 121.607 356.576 120.329 357.691C116.494 361.35 116.494 361.35 115.204 366.441C115.374 367.8 115.587 369.155 115.829 370.503C116.003 372.336 116.169 374.169 116.329 376.003C116.492 377.504 116.657 379.004 116.829 380.503C115.411 380.049 113.995 379.59 112.579 379.128C111.79 378.873 111.001 378.618 110.189 378.355C107.829 377.503 107.829 377.503 105.704 376.398C102.732 374.98 100.962 375.6 97.8292 376.503C95.734 377.733 93.7407 379.04 91.7589 380.445C89.8292 381.503 89.8292 381.503 85.8292 381.503C86.0664 380.441 86.3036 379.379 86.5479 378.285C88.3355 370.276 88.3355 370.276 86.2511 362.695C83.6382 360.134 81.101 358.139 77.8292 356.503C77.8292 355.513 77.8292 354.523 77.8292 353.503C79.9324 352.999 82.0368 352.5 84.1417 352.003C85.3134 351.725 86.4852 351.447 87.6925 351.16C90.8292 350.503 90.8292 350.503 93.8292 350.503C94.0561 349.699 94.2829 348.895 94.5167 348.066C96.1655 343.591 98.4346 339.616 100.829 335.503Z" fill="#FDCE05"/>
<path d="M150.829 363.503C154.753 364.029 155.984 365.669 158.392 368.691C161.4 371.894 161.4 371.894 165.583 372.585C168.381 372.018 171.084 371.281 173.829 370.503C177.517 370.378 177.517 370.378 179.829 370.503C178.746 374.114 177.435 377.243 175.579 380.503C174.082 383.447 173.777 384.183 174.329 387.566C175.491 389.841 176.711 392.001 178.017 394.191C178.615 395.284 179.213 396.377 179.829 397.503C179.499 398.493 179.169 399.483 178.829 400.503C176.725 400.362 174.621 400.215 172.517 400.066C171.345 399.985 170.173 399.903 168.966 399.82C165.829 399.503 165.829 399.503 162.829 398.503C162.57 399.076 162.311 399.648 162.044 400.238C160.724 402.7 159.213 404.638 157.392 406.753C156.795 407.46 156.198 408.166 155.583 408.894C153.829 410.503 153.829 410.503 150.829 410.503C150.169 405.223 149.509 399.943 148.829 394.503C147.447 394.05 146.066 393.596 144.642 393.128C141.322 392.024 138.057 390.857 134.829 389.503C134.829 388.513 134.829 387.523 134.829 386.503C135.733 386.184 136.637 385.864 137.568 385.535C144.261 382.896 144.261 382.896 148.739 377.602C150.089 372.984 150.536 368.291 150.829 363.503Z" fill="#FCCA11"/>
<path d="M237.829 371.503C237.664 372.649 237.499 373.795 237.329 374.976C236.003 383.359 236.003 383.359 238.509 391.05C240.644 392.846 240.644 392.846 242.946 394.179C244.829 395.503 244.829 395.503 245.587 397.671C245.667 398.276 245.747 398.881 245.829 399.503C244.853 399.662 243.878 399.821 242.872 399.984C241.6 400.217 240.328 400.451 239.017 400.691C237.752 400.911 236.488 401.132 235.185 401.359C231.729 402.192 231.729 402.192 230.048 404.816C229.646 405.703 229.244 406.59 228.829 407.503C228.372 408.314 227.914 409.125 227.443 409.96C227.013 410.738 226.584 411.515 226.142 412.316C225.705 413.106 225.268 413.896 224.818 414.71C224.491 415.302 224.165 415.894 223.829 416.503C220.829 415.503 220.829 415.503 219.443 413.289C219.013 412.39 218.584 411.492 218.142 410.566C217.486 409.222 217.486 409.222 216.818 407.851C215.829 405.503 215.829 405.503 215.829 403.503C210.549 403.173 205.269 402.843 199.829 402.503C200.97 397.942 202.002 397.224 205.454 394.253C208.679 391.338 208.679 391.338 210.2 387.457C209.926 385.491 209.926 385.491 209.368 383.566C208.736 381.145 208.728 379.001 208.767 376.503C208.776 375.74 208.785 374.977 208.794 374.191C208.806 373.634 208.817 373.077 208.829 372.503C212.053 373.501 214.879 374.531 217.829 376.191C221.55 377.819 222.975 377.737 226.829 376.503C228.952 375.27 230.982 373.965 232.997 372.562C234.829 371.503 234.829 371.503 237.829 371.503Z" fill="#FDCE0C"/>
<path d="M37.8293 240.503C38.1593 240.503 38.4893 240.503 38.8293 240.503C38.7365 241.577 38.6437 242.651 38.548 243.757C37.8114 251.762 37.8114 251.762 40.5402 258.984C42.6451 260.776 42.6451 260.776 44.884 262.144C47.1078 263.698 47.8212 265.02 48.8293 267.503C43.5 269.204 38.3982 270.024 32.8293 270.503C32.4271 271.803 32.4271 271.803 32.0168 273.128C30.8469 276.453 29.6012 279.456 27.8293 282.503C26.3443 282.998 26.3443 282.998 24.8293 283.503C22.8888 259.28 22.8888 259.28 31.0085 249.704C32.2726 248.295 33.5505 246.899 34.8293 245.503C35.8478 243.848 36.8547 242.185 37.8293 240.503Z" fill="#F8AB11"/>
<path d="M101.829 338.503C105.165 339.615 105.413 339.967 107.017 342.878C107.533 343.787 107.533 343.787 108.06 344.714C108.829 346.503 108.829 346.503 108.829 349.503C109.398 349.492 109.966 349.48 110.552 349.468C115.436 349.411 120.014 349.684 124.829 350.503C124.829 353.503 124.829 353.503 122.86 355.484C121.607 356.576 121.607 356.576 120.329 357.691C117.069 360.72 117.069 360.72 115.196 364.625C115.153 366.953 115.153 366.953 115.829 370.503C115.996 371.837 116.163 373.17 116.329 374.503C116.494 375.493 116.659 376.483 116.829 377.503C115.839 377.503 114.849 377.503 113.829 377.503C112.01 375.436 110.384 373.407 108.767 371.191C108.097 370.299 108.097 370.299 107.413 369.388C101.574 361.577 101.574 361.577 101.634 356.179C101.64 355.151 101.647 354.123 101.653 353.064C101.678 351.456 101.678 351.456 101.704 349.816C101.713 348.732 101.722 347.649 101.731 346.533C101.755 343.856 101.788 341.18 101.829 338.503Z" fill="#F8AA0F"/>
<path d="M61.8291 298.503C62.4891 298.833 63.1491 299.163 63.8291 299.503C64.1248 300.894 64.3908 302.291 64.6416 303.691C65.7385 307.382 66.5835 308.35 69.9151 310.433C73.1856 311.916 76.455 313.276 79.8291 314.503C79.8291 315.493 79.8291 316.483 79.8291 317.503C78.9255 317.858 78.0219 318.212 77.0908 318.578C69.8599 321.653 69.8599 321.653 65.3682 327.828C64.5993 331.343 64.5993 331.343 64.2237 334.808C64.0935 335.698 63.9633 336.587 63.8291 337.503C62.8391 337.998 62.8391 337.998 61.8291 338.503C53.3196 316.888 53.3196 316.888 56.7197 308.675C57.0858 307.959 57.4519 307.242 57.8291 306.503C58.3729 305.129 58.9148 303.754 59.4541 302.378C60.8291 299.503 60.8291 299.503 61.8291 298.503Z" fill="#F8AA0E"/>
<path d="M237.829 371.503C237.664 372.649 237.499 373.795 237.329 374.976C236.019 383.382 236.019 383.382 238.509 391.121C240.537 392.802 242.575 394.152 244.829 395.503C245.324 396.493 245.324 396.493 245.829 397.503C227.372 396.67 227.372 396.67 221.324 391.123C216.788 386.084 213.252 380.336 209.829 374.503C216.382 375.26 216.382 375.26 218.892 376.628C221.912 377.992 223.668 377.415 226.829 376.503C228.957 375.276 230.981 373.966 232.997 372.562C234.829 371.503 234.829 371.503 237.829 371.503Z" fill="#F8A707"/>
<path d="M152.829 365.503C154.262 366.74 155.694 367.977 157.126 369.214C159.992 371.384 161.731 372.606 165.415 372.261C166.336 372.052 167.256 371.844 168.204 371.628C172.17 370.8 175.757 370.283 179.829 370.503C178.746 374.114 177.435 377.243 175.579 380.503C174.062 383.472 173.748 384.114 174.454 387.503C174.908 388.493 175.362 389.483 175.829 390.503C176.23 391.955 176.605 393.414 176.954 394.878C177.243 396.075 177.532 397.271 177.829 398.503C175.104 396.777 172.382 395.047 169.665 393.308C168.076 392.297 166.482 391.294 164.868 390.324C158.061 386.143 156.839 379.775 154.829 372.503C154.434 371.128 154.039 369.753 153.642 368.378C153.374 367.43 153.106 366.481 152.829 365.503Z" fill="#F8AA10"/>
<path d="M100.829 335.503C101.489 335.503 102.149 335.503 102.829 335.503C103.159 336.823 103.489 338.143 103.829 339.503C103.499 339.503 103.169 339.503 102.829 339.503C102.499 346.433 102.169 353.363 101.829 360.503C99.4573 360.05 97.0854 359.596 94.6417 359.128C93.9041 358.99 93.1665 358.852 92.4066 358.709C88.6858 357.98 85.2915 357.05 81.8292 355.503C82.3345 356.046 82.8398 356.589 83.3604 357.148C84.0101 357.863 84.6598 358.579 85.3292 359.316C85.9789 360.024 86.6286 360.731 87.2979 361.46C88.8292 363.503 88.8292 363.503 88.8292 366.503C88.2027 365.865 87.5762 365.227 86.9307 364.57C86.1135 363.744 85.2962 362.917 84.4542 362.066C83.6421 361.242 82.83 360.418 81.9932 359.57C80.0057 357.469 80.0057 357.469 77.8292 356.503C77.8292 355.513 77.8292 354.523 77.8292 353.503C79.9324 352.999 82.0368 352.5 84.1417 352.003C85.3134 351.725 86.4852 351.447 87.6925 351.16C90.8292 350.503 90.8292 350.503 93.8292 350.503C94.0561 349.699 94.2829 348.895 94.5167 348.066C96.1655 343.591 98.4346 339.616 100.829 335.503Z" fill="#FAC518"/>
<path d="M37.8292 240.503C38.1592 240.503 38.4892 240.503 38.8292 240.503C38.7364 241.577 38.6436 242.651 38.548 243.757C37.8003 251.801 37.8003 251.801 40.6105 259.019C42.7723 260.841 42.7723 260.841 45.0792 262.242C45.9455 262.866 45.9455 262.866 46.8292 263.503C46.8292 264.493 46.8292 265.483 46.8292 266.503C45.7322 266.226 44.6352 265.949 43.505 265.664C42.0506 265.298 40.5962 264.932 39.1417 264.566C38.4205 264.384 37.6993 264.201 36.9562 264.013C33.261 263.085 29.5758 262.205 25.8292 261.503C26.3611 257.055 28.0002 254.53 30.7042 251.003C32.7868 248.268 34.7632 245.614 36.5245 242.66C36.9551 241.948 37.3856 241.237 37.8292 240.503Z" fill="#F69609"/>
<path d="M233.829 373.503C234.489 373.833 235.149 374.163 235.829 374.503C234.393 376.587 232.955 378.671 231.517 380.753C231.113 381.34 230.709 381.926 230.292 382.531C228.194 385.567 226.071 388.572 223.829 391.503C219.635 390.105 218.111 387.066 215.704 383.566C215.249 382.919 214.794 382.273 214.325 381.607C211.019 376.883 211.019 376.883 209.829 374.503C216.382 375.26 216.382 375.26 218.892 376.628C221.83 377.955 223.744 377.29 226.829 376.503C228.087 375.981 229.338 375.439 230.579 374.878C232.188 374.198 232.188 374.198 233.829 373.503Z" fill="#F6970A"/>
<path d="M61.8292 298.503C62.4892 298.833 63.1492 299.163 63.8292 299.503C64.1497 300.914 64.4359 302.332 64.7042 303.753C65.7604 307.295 66.461 308.284 69.6925 310.21C72.7106 311.441 75.7152 312.543 78.8292 313.503C78.8292 314.493 78.8292 315.483 78.8292 316.503C71.2392 316.503 63.6492 316.503 55.8292 316.503C56.5371 311.548 57.0012 308.497 58.8292 304.128C59.1798 303.275 59.5304 302.422 59.8917 301.542C60.8292 299.503 60.8292 299.503 61.8292 298.503Z" fill="#F69709"/>
<path d="M101.829 338.503C105.165 339.615 105.413 339.967 107.017 342.878C107.533 343.787 107.533 343.787 108.06 344.714C108.829 346.503 108.829 346.503 108.829 349.503C109.444 349.469 110.059 349.434 110.692 349.398C111.905 349.357 111.905 349.357 113.142 349.316C114.342 349.264 114.342 349.264 115.567 349.21C118.308 349.565 119.121 350.397 120.829 352.503C118.71 354.875 117.08 355.989 114.036 356.89C113.394 357.086 112.752 357.281 112.09 357.483C111.282 357.716 110.474 357.95 109.642 358.191C107.064 358.954 104.485 359.717 101.829 360.503C101.829 353.243 101.829 345.983 101.829 338.503Z" fill="#F6970B"/>
<path d="M152.829 365.503C154.262 366.74 155.694 367.977 157.126 369.214C161.631 372.624 165.045 372.651 170.579 372.128C171.277 372.072 171.974 372.015 172.693 371.957C174.406 371.816 176.118 371.661 177.829 371.503C177.829 372.163 177.829 372.823 177.829 373.503C176.142 374.8 176.142 374.8 173.829 376.253C169.875 378.79 166.147 381.496 162.458 384.402C160.829 385.503 160.829 385.503 158.829 385.503C154.606 371.87 154.606 371.87 152.829 365.503Z" fill="#F69406"/>
<path d="M211.829 381.503C213.149 381.503 214.469 381.503 215.829 381.503C217.751 383.91 217.751 383.91 219.579 387.003C220.5 388.535 220.5 388.535 221.439 390.097C221.898 390.891 222.356 391.685 222.829 392.503C219.71 393.87 216.583 395.22 213.454 396.566C212.565 396.956 211.675 397.346 210.759 397.748C209.908 398.112 209.057 398.476 208.181 398.851C207.395 399.191 206.61 399.532 205.8 399.883C203.829 400.503 203.829 400.503 201.829 399.503C202.467 398.958 203.105 398.413 203.763 397.851C209.625 392.66 209.625 392.66 211.892 385.441C211.871 384.142 211.851 382.842 211.829 381.503Z" fill="#FBC100"/>
<path d="M208.829 372.503C209.819 372.833 210.809 373.163 211.829 373.503C211.829 374.493 211.829 375.483 211.829 376.503C212.777 378.201 213.772 379.873 214.829 381.503C213.839 381.503 212.849 381.503 211.829 381.503C212.015 382.803 212.201 384.102 212.392 385.441C212.442 388.954 212.059 390.217 209.825 393C208.188 394.56 206.512 396.082 204.798 397.558C204.148 398.2 203.499 398.842 202.829 399.503C202.829 400.493 202.829 401.483 202.829 402.503C201.839 402.503 200.849 402.503 199.829 402.503C200.33 398.388 202.4 396.882 205.454 394.253C208.679 391.338 208.679 391.338 210.2 387.457C209.926 385.491 209.926 385.491 209.368 383.566C208.736 381.145 208.728 379.001 208.767 376.503C208.776 375.74 208.785 374.977 208.794 374.191C208.806 373.634 208.817 373.077 208.829 372.503Z" fill="#F9C72B"/>
<path d="M61.8292 292.503C62.4892 292.833 63.1492 293.163 63.8292 293.503C64.2433 295.57 64.2433 295.57 64.4542 298.066C64.529 298.892 64.6037 299.718 64.6808 300.57C64.7298 301.208 64.7787 301.846 64.8292 302.503C63.8392 301.513 62.8492 300.523 61.8292 299.503C61.1073 299.957 60.3855 300.411 59.6417 300.878C57.0803 302.358 54.5964 303.476 51.8292 304.503C54.3327 299.644 57.9147 296.225 61.8292 292.503Z" fill="#F8C438"/>
<path d="M210.829 386.503C211.607 388.218 211.607 388.218 211.829 390.503C209.958 392.757 209.958 392.757 207.392 395.066C204.868 397.291 204.868 397.291 202.829 399.503C202.829 400.493 202.829 401.483 202.829 402.503C201.839 402.503 200.849 402.503 199.829 402.503C200.349 398.43 202.4 396.68 205.329 393.941C208.852 390.731 208.852 390.731 210.829 386.503Z" fill="#F9CD3E"/>
<path d="M237.829 371.503C236.866 383.025 236.866 383.025 235.829 388.503C235.499 388.503 235.169 388.503 234.829 388.503C235.159 383.553 235.489 378.603 235.829 373.503C234.509 373.833 233.189 374.163 231.829 374.503C234.454 371.503 234.454 371.503 237.829 371.503Z" fill="#F7BC41"/>
<path d="M87.8292 368.503C88.4892 368.503 89.1492 368.503 89.8292 368.503C89.1692 371.803 88.5092 375.103 87.8292 378.503C89.4792 378.503 91.1292 378.503 92.8292 378.503C91.5792 380.003 91.5792 380.003 89.8292 381.503C88.5092 381.503 87.1892 381.503 85.8292 381.503C86.4892 377.213 87.1492 372.923 87.8292 368.503Z" fill="#FAD449"/>
<path d="M214.829 402.503C215.489 402.503 216.149 402.503 216.829 402.503C217.668 403.959 218.5 405.418 219.329 406.878C220.025 408.097 220.025 408.097 220.736 409.339C221.829 411.503 221.829 411.503 221.829 413.503C222.819 413.503 223.809 413.503 224.829 413.503C224.499 414.493 224.169 415.483 223.829 416.503C220.829 415.503 220.829 415.503 219.224 412.562C218.702 411.367 218.18 410.172 217.642 408.941C217.112 407.743 216.582 406.546 216.036 405.312C215.638 404.385 215.24 403.458 214.829 402.503Z" fill="#F9D449"/>
<path d="M51.8292 330.503C55.1951 331.946 57.3397 333.836 59.8292 336.503C60.4892 336.173 61.1492 335.843 61.8292 335.503C63.8292 337.503 63.8292 337.503 63.8292 340.503C59.9803 339.949 58.2366 338.259 55.5792 335.503C54.8728 334.782 54.1664 334.06 53.4386 333.316C51.8292 331.503 51.8292 331.503 51.8292 330.503Z" fill="#F9CC35"/>
<path d="M103.829 374.503C108.314 375.16 112.498 376.204 116.829 377.503C116.829 378.493 116.829 379.483 116.829 380.503C107.235 377.613 107.235 377.613 103.829 374.503Z" fill="#FAD13F"/>
<path d="M149.829 404.503C150.489 404.503 151.149 404.503 151.829 404.503C152.489 405.163 153.149 405.823 153.829 406.503C154.489 406.833 155.149 407.163 155.829 407.503C154.839 408.988 154.839 408.988 153.829 410.503C152.839 410.503 151.849 410.503 150.829 410.503C150.499 408.523 150.169 406.543 149.829 404.503Z" fill="#F9D145"/>
<path d="M34.8293 302.503C36.8365 302.79 38.8378 303.122 40.8293 303.503C40.1899 303.772 39.5505 304.04 38.8918 304.316C36.4979 305.39 36.4979 305.39 35.8293 308.503C35.1693 306.853 34.5093 305.203 33.8293 303.503C34.1593 303.173 34.4893 302.843 34.8293 302.503Z" fill="#F9D03D"/>
</svg>
